<mxfile host="app.diagrams.net" modified="2022-05-17T09:35:29.617Z" agent="5.0 (Windows)" etag="QRR-ZicjQyb_ltcGAdJS" version="18.0.6" type="github">
  <diagram id="H5Dt-ASi5tr7sncTvc-L" name="Page-1">
    <mxGraphModel dx="1038" dy="528" grid="1" gridSize="10" guides="1" tooltips="1" connect="1" arrows="1" fold="1" page="1" pageScale="1" pageWidth="850" pageHeight="1100" math="0" shadow="0">
      <root>
        <mxCell id="0" />
        <mxCell id="1" parent="0" />
        <mxCell id="-3O10WwuAZNK-fWrXain-4" style="edgeStyle=orthogonalEdgeStyle;rounded=0;orthogonalLoop=1;jettySize=auto;html=1;" edge="1" parent="1" source="-3O10WwuAZNK-fWrXain-2" target="-3O10WwuAZNK-fWrXain-3">
          <mxGeometry relative="1" as="geometry" />
        </mxCell>
        <mxCell id="-3O10WwuAZNK-fWrXain-2" value="Transactions&lt;div&gt;&lt;br&gt;&lt;/div&gt;" style="sketch=0;outlineConnect=0;fontColor=#232F3E;gradientColor=none;strokeColor=#232F3E;fillColor=#ffffff;dashed=0;verticalLabelPosition=bottom;verticalAlign=top;align=center;html=1;fontSize=12;fontStyle=0;aspect=fixed;shape=mxgraph.aws4.resourceIcon;resIcon=mxgraph.aws4.lambda_function;" vertex="1" parent="1">
          <mxGeometry x="180" y="160" width="60" height="60" as="geometry" />
        </mxCell>
        <mxCell id="-3O10WwuAZNK-fWrXain-6" style="edgeStyle=orthogonalEdgeStyle;rounded=0;orthogonalLoop=1;jettySize=auto;html=1;" edge="1" parent="1" source="-3O10WwuAZNK-fWrXain-3" target="-3O10WwuAZNK-fWrXain-5">
          <mxGeometry relative="1" as="geometry" />
        </mxCell>
        <mxCell id="-3O10WwuAZNK-fWrXain-3" value="Amazon DynamoDB" style="sketch=0;outlineConnect=0;fontColor=#232F3E;gradientColor=none;strokeColor=#ffffff;fillColor=#232F3E;dashed=0;verticalLabelPosition=middle;verticalAlign=bottom;align=center;html=1;whiteSpace=wrap;fontSize=10;fontStyle=1;spacing=3;shape=mxgraph.aws4.productIcon;prIcon=mxgraph.aws4.dynamodb;" vertex="1" parent="1">
          <mxGeometry x="370" y="135" width="80" height="110" as="geometry" />
        </mxCell>
        <mxCell id="-3O10WwuAZNK-fWrXain-10" style="edgeStyle=orthogonalEdgeStyle;rounded=0;orthogonalLoop=1;jettySize=auto;html=1;" edge="1" parent="1" source="-3O10WwuAZNK-fWrXain-5" target="-3O10WwuAZNK-fWrXain-8">
          <mxGeometry relative="1" as="geometry" />
        </mxCell>
        <mxCell id="-3O10WwuAZNK-fWrXain-11" style="edgeStyle=orthogonalEdgeStyle;rounded=0;orthogonalLoop=1;jettySize=auto;html=1;entryX=0;entryY=0.5;entryDx=0;entryDy=0;entryPerimeter=0;" edge="1" parent="1" source="-3O10WwuAZNK-fWrXain-5" target="-3O10WwuAZNK-fWrXain-9">
          <mxGeometry relative="1" as="geometry" />
        </mxCell>
        <mxCell id="-3O10WwuAZNK-fWrXain-12" style="edgeStyle=orthogonalEdgeStyle;rounded=0;orthogonalLoop=1;jettySize=auto;html=1;entryX=0;entryY=0.5;entryDx=0;entryDy=0;entryPerimeter=0;" edge="1" parent="1" source="-3O10WwuAZNK-fWrXain-5" target="-3O10WwuAZNK-fWrXain-7">
          <mxGeometry relative="1" as="geometry" />
        </mxCell>
        <mxCell id="-3O10WwuAZNK-fWrXain-21" style="edgeStyle=orthogonalEdgeStyle;rounded=0;orthogonalLoop=1;jettySize=auto;html=1;entryX=0;entryY=0.5;entryDx=0;entryDy=0;entryPerimeter=0;" edge="1" parent="1" source="-3O10WwuAZNK-fWrXain-5" target="-3O10WwuAZNK-fWrXain-20">
          <mxGeometry relative="1" as="geometry" />
        </mxCell>
        <mxCell id="-3O10WwuAZNK-fWrXain-5" value="&lt;div&gt;DynamoDB Streams&lt;/div&gt;&lt;div&gt;&lt;br&gt;&lt;/div&gt;" style="sketch=0;outlineConnect=0;fontColor=#232F3E;gradientColor=none;fillColor=#2E27AD;strokeColor=none;dashed=0;verticalLabelPosition=bottom;verticalAlign=top;align=center;html=1;fontSize=12;fontStyle=0;aspect=fixed;pointerEvents=1;shape=mxgraph.aws4.dynamodb_stream;" vertex="1" parent="1">
          <mxGeometry x="570" y="151" width="78" height="78" as="geometry" />
        </mxCell>
        <mxCell id="-3O10WwuAZNK-fWrXain-16" style="edgeStyle=orthogonalEdgeStyle;rounded=0;orthogonalLoop=1;jettySize=auto;html=1;" edge="1" parent="1" source="-3O10WwuAZNK-fWrXain-7" target="-3O10WwuAZNK-fWrXain-13">
          <mxGeometry relative="1" as="geometry" />
        </mxCell>
        <mxCell id="-3O10WwuAZNK-fWrXain-19" value="&amp;nbsp;Link Goals and transactions" style="edgeLabel;html=1;align=center;verticalAlign=middle;resizable=0;points=[];" vertex="1" connectable="0" parent="-3O10WwuAZNK-fWrXain-16">
          <mxGeometry x="-0.2612" y="3" relative="1" as="geometry">
            <mxPoint as="offset" />
          </mxGeometry>
        </mxCell>
        <mxCell id="-3O10WwuAZNK-fWrXain-7" value="link-goals" style="outlineConnect=0;dashed=0;verticalLabelPosition=bottom;verticalAlign=top;align=center;html=1;shape=mxgraph.aws3.lambda_function;fillColor=#F58534;gradientColor=none;" vertex="1" parent="1">
          <mxGeometry x="820" y="300" width="69" height="72" as="geometry" />
        </mxCell>
        <mxCell id="-3O10WwuAZNK-fWrXain-15" style="edgeStyle=orthogonalEdgeStyle;rounded=0;orthogonalLoop=1;jettySize=auto;html=1;" edge="1" parent="1">
          <mxGeometry relative="1" as="geometry">
            <mxPoint x="888" y="190" as="sourcePoint" />
            <mxPoint x="1339" y="190" as="targetPoint" />
          </mxGeometry>
        </mxCell>
        <mxCell id="-3O10WwuAZNK-fWrXain-18" value="&amp;nbsp;Link Investment and transaction " style="edgeLabel;html=1;align=center;verticalAlign=middle;resizable=0;points=[];" vertex="1" connectable="0" parent="-3O10WwuAZNK-fWrXain-15">
          <mxGeometry x="-0.2417" y="3" relative="1" as="geometry">
            <mxPoint x="60" y="3" as="offset" />
          </mxGeometry>
        </mxCell>
        <mxCell id="-3O10WwuAZNK-fWrXain-8" value="link-investments" style="outlineConnect=0;dashed=0;verticalLabelPosition=bottom;verticalAlign=top;align=center;html=1;shape=mxgraph.aws3.lambda_function;fillColor=#F58534;gradientColor=none;" vertex="1" parent="1">
          <mxGeometry x="820" y="154" width="69" height="72" as="geometry" />
        </mxCell>
        <mxCell id="-3O10WwuAZNK-fWrXain-14" style="edgeStyle=orthogonalEdgeStyle;rounded=0;orthogonalLoop=1;jettySize=auto;html=1;" edge="1" parent="1" source="-3O10WwuAZNK-fWrXain-9" target="-3O10WwuAZNK-fWrXain-13">
          <mxGeometry relative="1" as="geometry" />
        </mxCell>
        <mxCell id="-3O10WwuAZNK-fWrXain-17" value="&lt;div&gt;&amp;nbsp;Link&amp;nbsp; category and transaction &lt;br&gt;&lt;/div&gt;" style="edgeLabel;html=1;align=center;verticalAlign=middle;resizable=0;points=[];" vertex="1" connectable="0" parent="-3O10WwuAZNK-fWrXain-14">
          <mxGeometry x="-0.1588" y="4" relative="1" as="geometry">
            <mxPoint x="-22" y="4" as="offset" />
          </mxGeometry>
        </mxCell>
        <mxCell id="-3O10WwuAZNK-fWrXain-9" value="link-categories" style="outlineConnect=0;dashed=0;verticalLabelPosition=bottom;verticalAlign=top;align=center;html=1;shape=mxgraph.aws3.lambda_function;fillColor=#F58534;gradientColor=none;" vertex="1" parent="1">
          <mxGeometry x="820" y="10" width="69" height="72" as="geometry" />
        </mxCell>
        <mxCell id="-3O10WwuAZNK-fWrXain-13" value="Amazon DynamoDB" style="sketch=0;outlineConnect=0;fontColor=#232F3E;gradientColor=none;strokeColor=#ffffff;fillColor=#232F3E;dashed=0;verticalLabelPosition=middle;verticalAlign=bottom;align=center;html=1;whiteSpace=wrap;fontSize=10;fontStyle=1;spacing=3;shape=mxgraph.aws4.productIcon;prIcon=mxgraph.aws4.dynamodb;" vertex="1" parent="1">
          <mxGeometry x="1340" y="135" width="80" height="110" as="geometry" />
        </mxCell>
        <mxCell id="-3O10WwuAZNK-fWrXain-22" style="edgeStyle=orthogonalEdgeStyle;rounded=0;orthogonalLoop=1;jettySize=auto;html=1;" edge="1" parent="1" source="-3O10WwuAZNK-fWrXain-20" target="-3O10WwuAZNK-fWrXain-13">
          <mxGeometry relative="1" as="geometry" />
        </mxCell>
        <mxCell id="-3O10WwuAZNK-fWrXain-23" value="&amp;nbsp;Link Debt with Transactions " style="edgeLabel;html=1;align=center;verticalAlign=middle;resizable=0;points=[];" vertex="1" connectable="0" parent="-3O10WwuAZNK-fWrXain-22">
          <mxGeometry x="-0.4809" y="2" relative="1" as="geometry">
            <mxPoint as="offset" />
          </mxGeometry>
        </mxCell>
        <mxCell id="-3O10WwuAZNK-fWrXain-20" value="link-debt" style="outlineConnect=0;dashed=0;verticalLabelPosition=bottom;verticalAlign=top;align=center;html=1;shape=mxgraph.aws3.lambda_function;fillColor=#F58534;gradientColor=none;" vertex="1" parent="1">
          <mxGeometry x="820" y="450" width="69" height="72" as="geometry" />
        </mxCell>
      </root>
    </mxGraphModel>
  </diagram>
</mxfile>
